<?xml version="1.0" standalone="no"?>
<!DOCTYPE svg PUBLIC "-//W3C//DTD SVG 1.1//EN" "http://www.w3.org/Graphics/SVG/1.1/DTD/svg11.dtd">
<svg width="1240.0" height="1680.0" style="background:white" xmlns="http://www.w3.org/2000/svg">
<circle cx="200.0" cy="120.0" r="40" fill="white" style="stroke:black; stroke-width:1"/>
<line x1="228.2842712474619" y1="148.2842712474619" x2="228.2842712474619" y2="288.2842712474619" style="stroke:black; stroke-width:1"/>
<line x1="171.7157287525381" y1="148.2842712474619" x2="171.7157287525381" y2="288.2842712474619" style="stroke:black; stroke-width:1"/>
<line x1="228.2842712474619" y1="288.2842712474619" x2="171.7157287525381" y2="288.2842712474619" style="stroke:black; stroke-width:1"/>
<text x="160.0" y="76.0" font-family="arial" font-size="14" fill="black" style="writing-mode: lr">ApplicationMailer</text>
<circle cx="480.0" cy="120.0" r="40" fill="white" style="stroke:black; stroke-width:1"/>
<line x1="508.2842712474619" y1="148.2842712474619" x2="508.2842712474619" y2="288.2842712474619" style="stroke:black; stroke-width:1"/>
<line x1="451.7157287525381" y1="148.2842712474619" x2="451.7157287525381" y2="288.2842712474619" style="stroke:black; stroke-width:1"/>
<line x1="508.2842712474619" y1="288.2842712474619" x2="451.7157287525381" y2="288.2842712474619" style="stroke:black; stroke-width:1"/>
<text x="440.0" y="76.0" font-family="arial" font-size="14" fill="black" style="writing-mode: lr">Repo</text>
<circle cx="760.0" cy="120.0" r="40" fill="white" style="stroke:black; stroke-width:1"/>
<line x1="788.2842712474619" y1="148.2842712474619" x2="788.2842712474619" y2="288.2842712474619" style="stroke:black; stroke-width:1"/>
<line x1="731.7157287525381" y1="148.2842712474619" x2="731.7157287525381" y2="288.2842712474619" style="stroke:black; stroke-width:1"/>
<line x1="788.2842712474619" y1="288.2842712474619" x2="731.7157287525381" y2="288.2842712474619" style="stroke:black; stroke-width:1"/>
<text x="720.0" y="76.0" font-family="arial" font-size="14" fill="black" style="writing-mode: lr">Authorization</text>
<circle cx="1040.0" cy="120.0" r="40" fill="white" style="stroke:black; stroke-width:1"/>
<line x1="1068.284271247462" y1="148.2842712474619" x2="1068.284271247462" y2="288.2842712474619" style="stroke:black; stroke-width:1"/>
<line x1="1011.7157287525381" y1="148.2842712474619" x2="1011.7157287525381" y2="288.2842712474619" style="stroke:black; stroke-width:1"/>
<line x1="1068.284271247462" y1="288.2842712474619" x2="1011.7157287525381" y2="288.2842712474619" style="stroke:black; stroke-width:1"/>
<text x="1000.0" y="76.0" font-family="arial" font-size="14" fill="black" style="writing-mode: lr">Ability</text>
<line x1="1011.7157287525381" y1="156" x2="981.7157287525381" y2="156" style="stroke:black; stroke-width:1"/>
<ellipse cx="976.7157287525381" cy="156" rx="5" ry="2" style="stroke:black; stroke-width:1" fill="white"/>
<line x1="971.7157287525381" y1="156" x2="941.7157287525381" y2="156" style="stroke:black; stroke-width:1"/>
<text x="922" y="146" font-family="arial" font-size="10" fill="black" style="writing-mode: lr">initialize</text>
<line x1="941.7157287525381" y1="156" x2="934.6446609406727" y2="148.92893218813452" style="stroke:black; stroke-width:1"/>
<line x1="1068.284271247462" y1="156" x2="1138.284271247462" y2="156" style="stroke:black; stroke-width:1"/>
<text x="1118" y="146" font-family="arial" font-size="10" fill="black" style="writing-mode: lr">user_abilities</text>
<circle cx="200.0" cy="440.0" r="40" fill="white" style="stroke:black; stroke-width:1"/>
<line x1="228.2842712474619" y1="468.2842712474619" x2="228.2842712474619" y2="608.2842712474619" style="stroke:black; stroke-width:1"/>
<line x1="171.7157287525381" y1="468.2842712474619" x2="171.7157287525381" y2="608.2842712474619" style="stroke:black; stroke-width:1"/>
<line x1="228.2842712474619" y1="608.2842712474619" x2="171.7157287525381" y2="608.2842712474619" style="stroke:black; stroke-width:1"/>
<text x="160.0" y="396.0" font-family="arial" font-size="14" fill="black" style="writing-mode: lr">ApplicationRecord</text>
<circle cx="480.0" cy="440.0" r="40" fill="white" style="stroke:black; stroke-width:1"/>
<line x1="508.2842712474619" y1="468.2842712474619" x2="508.2842712474619" y2="608.2842712474619" style="stroke:black; stroke-width:1"/>
<line x1="451.7157287525381" y1="468.2842712474619" x2="451.7157287525381" y2="608.2842712474619" style="stroke:black; stroke-width:1"/>
<line x1="508.2842712474619" y1="608.2842712474619" x2="451.7157287525381" y2="608.2842712474619" style="stroke:black; stroke-width:1"/>
<text x="440.0" y="396.0" font-family="arial" font-size="14" fill="black" style="writing-mode: lr">User</text>
<line x1="451.7157287525381" y1="492" x2="381.7157287525381" y2="492" style="stroke:black; stroke-width:1"/>
<text x="362" y="482" font-family="arial" font-size="10" fill="black" style="writing-mode: lr">create_authorization!</text>
<line x1="381.7157287525381" y1="492" x2="374.6446609406726" y2="484.9289321881345" style="stroke:black; stroke-width:1"/>
<circle cx="760.0" cy="440.0" r="40" fill="white" style="stroke:black; stroke-width:1"/>
<line x1="788.2842712474619" y1="468.2842712474619" x2="788.2842712474619" y2="608.2842712474619" style="stroke:black; stroke-width:1"/>
<line x1="731.7157287525381" y1="468.2842712474619" x2="731.7157287525381" y2="608.2842712474619" style="stroke:black; stroke-width:1"/>
<line x1="788.2842712474619" y1="608.2842712474619" x2="731.7157287525381" y2="608.2842712474619" style="stroke:black; stroke-width:1"/>
<text x="720.0" y="396.0" font-family="arial" font-size="14" fill="black" style="writing-mode: lr">DudeJob</text>
<line x1="731.7157287525381" y1="492" x2="691.7157287525381" y2="492" style="stroke:black; stroke-width:1"/>
<text x="672" y="482" font-family="arial" font-size="10" fill="black" style="writing-mode: lr">perform</text>
<line x1="691.7157287525381" y1="492" x2="684.6446609406727" y2="484.9289321881345" style="stroke:black; stroke-width:1"/>
<circle cx="1040.0" cy="440.0" r="40" fill="white" style="stroke:black; stroke-width:1"/>
<line x1="1068.284271247462" y1="468.2842712474619" x2="1068.284271247462" y2="608.2842712474619" style="stroke:black; stroke-width:1"/>
<line x1="1011.7157287525381" y1="468.2842712474619" x2="1011.7157287525381" y2="608.2842712474619" style="stroke:black; stroke-width:1"/>
<line x1="1068.284271247462" y1="608.2842712474619" x2="1011.7157287525381" y2="608.2842712474619" style="stroke:black; stroke-width:1"/>
<text x="1000.0" y="396.0" font-family="arial" font-size="14" fill="black" style="writing-mode: lr">ApplicationJob</text>
<circle cx="200.0" cy="760.0" r="40" fill="white" style="stroke:black; stroke-width:1"/>
<line x1="228.2842712474619" y1="788.2842712474619" x2="228.2842712474619" y2="928.2842712474619" style="stroke:black; stroke-width:1"/>
<line x1="171.7157287525381" y1="788.2842712474619" x2="171.7157287525381" y2="928.2842712474619" style="stroke:black; stroke-width:1"/>
<line x1="228.2842712474619" y1="928.2842712474619" x2="171.7157287525381" y2="928.2842712474619" style="stroke:black; stroke-width:1"/>
<text x="160.0" y="716.0" font-family="arial" font-size="14" fill="black" style="writing-mode: lr">ApplicationController</text>
<circle cx="480.0" cy="760.0" r="40" fill="white" style="stroke:black; stroke-width:1"/>
<line x1="508.2842712474619" y1="788.2842712474619" x2="508.2842712474619" y2="928.2842712474619" style="stroke:black; stroke-width:1"/>
<line x1="451.7157287525381" y1="788.2842712474619" x2="451.7157287525381" y2="928.2842712474619" style="stroke:black; stroke-width:1"/>
<line x1="508.2842712474619" y1="928.2842712474619" x2="451.7157287525381" y2="928.2842712474619" style="stroke:black; stroke-width:1"/>
<text x="440.0" y="716.0" font-family="arial" font-size="14" fill="black" style="writing-mode: lr">OauthCallbacksController</text>
<line x1="451.7157287525381" y1="828" x2="411.7157287525381" y2="828" style="stroke:black; stroke-width:1"/>
<text x="392" y="818" font-family="arial" font-size="10" fill="black" style="writing-mode: lr">github</text>
<line x1="508.2842712474619" y1="828" x2="524.2842712474619" y2="828" style="stroke:black; stroke-width:1"/>
<ellipse cx="529.2842712474619" cy="828" rx="5" ry="2" style="stroke:black; stroke-width:1" fill="white"/>
<line x1="534.2842712474619" y1="828" x2="550.2842712474619" y2="828" style="stroke:black; stroke-width:1"/>
<ellipse cx="555.2842712474619" cy="828" rx="5" ry="2" style="stroke:black; stroke-width:1" fill="white"/>
<line x1="560.2842712474619" y1="828" x2="576.2842712474619" y2="828" style="stroke:black; stroke-width:1"/>
<text x="558" y="818" font-family="arial" font-size="10" fill="black" style="writing-mode: lr">oauth_provider</text>
<line x1="578.2842712474619" y1="828" x2="585.3553390593274" y2="820.9289321881346" style="stroke:black; stroke-width:1"/>
<circle cx="760.0" cy="760.0" r="40" fill="white" style="stroke:black; stroke-width:1"/>
<line x1="788.2842712474619" y1="788.2842712474619" x2="788.2842712474619" y2="928.2842712474619" style="stroke:black; stroke-width:1"/>
<line x1="731.7157287525381" y1="788.2842712474619" x2="731.7157287525381" y2="928.2842712474619" style="stroke:black; stroke-width:1"/>
<line x1="788.2842712474619" y1="928.2842712474619" x2="731.7157287525381" y2="928.2842712474619" style="stroke:black; stroke-width:1"/>
<text x="720.0" y="716.0" font-family="arial" font-size="14" fill="black" style="writing-mode: lr">ReposController</text>
<line x1="731.7157287525381" y1="828" x2="661.7157287525381" y2="828" style="stroke:black; stroke-width:1"/>
<text x="642" y="818" font-family="arial" font-size="10" fill="black" style="writing-mode: lr">index</text>
<line x1="731.7157287525381" y1="849" x2="661.7157287525381" y2="849" style="stroke:black; stroke-width:1"/>
<text x="642" y="839" font-family="arial" font-size="10" fill="black" style="writing-mode: lr">refresh</text>
<line x1="731.7157287525381" y1="870" x2="661.7157287525381" y2="870" style="stroke:black; stroke-width:1"/>
<text x="642" y="860" font-family="arial" font-size="10" fill="black" style="writing-mode: lr">monitor</text>
<line x1="731.7157287525381" y1="891" x2="661.7157287525381" y2="891" style="stroke:black; stroke-width:1"/>
<text x="642" y="881" font-family="arial" font-size="10" fill="black" style="writing-mode: lr">not_monitor</text>
<line x1="731.7157287525381" y1="912" x2="701.7157287525381" y2="912" style="stroke:black; stroke-width:1"/>
<ellipse cx="696.7157287525381" cy="912" rx="5" ry="2" style="stroke:black; stroke-width:1" fill="white"/>
<line x1="691.7157287525381" y1="912" x2="661.7157287525381" y2="912" style="stroke:black; stroke-width:1"/>
<text x="642" y="902" font-family="arial" font-size="10" fill="black" style="writing-mode: lr">add_to_monitored</text>
<line x1="731.7157287525381" y1="933" x2="701.7157287525381" y2="933" style="stroke:black; stroke-width:1"/>
<ellipse cx="696.7157287525381" cy="933" rx="5" ry="2" style="stroke:black; stroke-width:1" fill="white"/>
<line x1="691.7157287525381" y1="933" x2="661.7157287525381" y2="933" style="stroke:black; stroke-width:1"/>
<text x="642" y="923" font-family="arial" font-size="10" fill="black" style="writing-mode: lr">remove_from_monitored</text>
<line x1="788.2842712474619" y1="828" x2="828.2842712474619" y2="828" style="stroke:black; stroke-width:1"/>
<text x="808" y="818" font-family="arial" font-size="10" fill="black" style="writing-mode: lr">id</text>
<line x1="788.2842712474619" y1="849" x2="828.2842712474619" y2="849" style="stroke:black; stroke-width:1"/>
<text x="808" y="839" font-family="arial" font-size="10" fill="black" style="writing-mode: lr">repo_id</text>
<line x1="788.2842712474619" y1="870" x2="858.2842712474619" y2="870" style="stroke:black; stroke-width:1"/>
<text x="838" y="860" font-family="arial" font-size="10" fill="black" style="writing-mode: lr">get_current_user_repos</text>
<line x1="788.2842712474619" y1="891" x2="858.2842712474619" y2="891" style="stroke:black; stroke-width:1"/>
<text x="838" y="881" font-family="arial" font-size="10" fill="black" style="writing-mode: lr">update_user_repos</text>
<line x1="788.2842712474619" y1="912" x2="818.2842712474619" y2="912" style="stroke:black; stroke-width:1"/>
<ellipse cx="823.2842712474619" cy="912" rx="5" ry="2" style="stroke:black; stroke-width:1" fill="white"/>
<line x1="828.2842712474619" y1="912" x2="858.2842712474619" y2="912" style="stroke:black; stroke-width:1"/>
<text x="838" y="902" font-family="arial" font-size="10" fill="black" style="writing-mode: lr">update_repository</text>
<line x1="858.2842712474619" y1="912" x2="865.3553390593274" y2="904.9289321881346" style="stroke:black; stroke-width:1"/>
<line x1="788.2842712474619" y1="933" x2="804.2842712474619" y2="933" style="stroke:black; stroke-width:1"/>
<ellipse cx="809.2842712474619" cy="933" rx="5" ry="2" style="stroke:black; stroke-width:1" fill="white"/>
<line x1="814.2842712474619" y1="933" x2="830.2842712474619" y2="933" style="stroke:black; stroke-width:1"/>
<ellipse cx="835.2842712474619" cy="933" rx="5" ry="2" style="stroke:black; stroke-width:1" fill="white"/>
<line x1="840.2842712474619" y1="933" x2="856.2842712474619" y2="933" style="stroke:black; stroke-width:1"/>
<text x="838" y="923" font-family="arial" font-size="10" fill="black" style="writing-mode: lr">load_repos</text>
<circle cx="1040.0" cy="760.0" r="40" fill="white" style="stroke:black; stroke-width:1"/>
<line x1="1068.284271247462" y1="788.2842712474619" x2="1068.284271247462" y2="928.2842712474619" style="stroke:black; stroke-width:1"/>
<line x1="1011.7157287525381" y1="788.2842712474619" x2="1011.7157287525381" y2="928.2842712474619" style="stroke:black; stroke-width:1"/>
<line x1="1068.284271247462" y1="928.2842712474619" x2="1011.7157287525381" y2="928.2842712474619" style="stroke:black; stroke-width:1"/>
<text x="1000.0" y="716.0" font-family="arial" font-size="14" fill="black" style="writing-mode: lr">UploadService</text>
<circle cx="200.0" cy="1080.0" r="40" fill="white" style="stroke:black; stroke-width:1"/>
<line x1="228.2842712474619" y1="1108.284271247462" x2="228.2842712474619" y2="1248.284271247462" style="stroke:black; stroke-width:1"/>
<line x1="171.7157287525381" y1="1108.284271247462" x2="171.7157287525381" y2="1248.284271247462" style="stroke:black; stroke-width:1"/>
<line x1="228.2842712474619" y1="1248.284271247462" x2="171.7157287525381" y2="1248.284271247462" style="stroke:black; stroke-width:1"/>
<text x="160.0" y="1036.0" font-family="arial" font-size="14" fill="black" style="writing-mode: lr">MonitorService</text>
<circle cx="480.0" cy="1080.0" r="40" fill="white" style="stroke:black; stroke-width:1"/>
<line x1="508.2842712474619" y1="1108.284271247462" x2="508.2842712474619" y2="1248.284271247462" style="stroke:black; stroke-width:1"/>
<line x1="451.7157287525381" y1="1108.284271247462" x2="451.7157287525381" y2="1248.284271247462" style="stroke:black; stroke-width:1"/>
<line x1="508.2842712474619" y1="1248.284271247462" x2="451.7157287525381" y2="1248.284271247462" style="stroke:black; stroke-width:1"/>
<text x="440.0" y="1036.0" font-family="arial" font-size="14" fill="black" style="writing-mode: lr">FindForOauth</text>
<line x1="451.7157287525381" y1="1164" x2="435.7157287525381" y2="1164" style="stroke:black; stroke-width:1"/>
<ellipse cx="430.7157287525381" cy="1164" rx="5" ry="2" style="stroke:black; stroke-width:1" fill="white"/>
<line x1="425.7157287525381" y1="1164" x2="409.7157287525381" y2="1164" style="stroke:black; stroke-width:1"/>
<ellipse cx="404.7157287525381" cy="1164" rx="5" ry="2" style="stroke:black; stroke-width:1" fill="white"/>
<line x1="399.7157287525381" y1="1164" x2="383.7157287525381" y2="1164" style="stroke:black; stroke-width:1"/>
<text x="362" y="1154" font-family="arial" font-size="10" fill="black" style="writing-mode: lr">call</text>
<line x1="381.7157287525381" y1="1164" x2="374.6446609406726" y2="1156.9289321881345" style="stroke:black; stroke-width:1"/>
<circle cx="760.0" cy="1080.0" r="40" fill="white" style="stroke:black; stroke-width:1"/>
<line x1="788.2842712474619" y1="1108.284271247462" x2="788.2842712474619" y2="1248.284271247462" style="stroke:black; stroke-width:1"/>
<line x1="731.7157287525381" y1="1108.284271247462" x2="731.7157287525381" y2="1248.284271247462" style="stroke:black; stroke-width:1"/>
<line x1="788.2842712474619" y1="1248.284271247462" x2="731.7157287525381" y2="1248.284271247462" style="stroke:black; stroke-width:1"/>
<text x="720.0" y="1036.0" font-family="arial" font-size="14" fill="black" style="writing-mode: lr">MonitorRepoService</text>
<circle cx="1040.0" cy="1080.0" r="40" fill="white" style="stroke:black; stroke-width:1"/>
<line x1="1068.284271247462" y1="1108.284271247462" x2="1068.284271247462" y2="1248.284271247462" style="stroke:black; stroke-width:1"/>
<line x1="1011.7157287525381" y1="1108.284271247462" x2="1011.7157287525381" y2="1248.284271247462" style="stroke:black; stroke-width:1"/>
<line x1="1068.284271247462" y1="1248.284271247462" x2="1011.7157287525381" y2="1248.284271247462" style="stroke:black; stroke-width:1"/>
<text x="1000.0" y="1036.0" font-family="arial" font-size="14" fill="black" style="writing-mode: lr">DudesService</text>
<circle cx="200.0" cy="1400.0" r="40" fill="white" style="stroke:black; stroke-width:1"/>
<line x1="228.2842712474619" y1="1428.284271247462" x2="228.2842712474619" y2="1568.284271247462" style="stroke:black; stroke-width:1"/>
<line x1="171.7157287525381" y1="1428.284271247462" x2="171.7157287525381" y2="1568.284271247462" style="stroke:black; stroke-width:1"/>
<line x1="228.2842712474619" y1="1568.284271247462" x2="171.7157287525381" y2="1568.284271247462" style="stroke:black; stroke-width:1"/>
<text x="160.0" y="1356.0" font-family="arial" font-size="14" fill="black" style="writing-mode: lr">DownloadService</text>
<circle cx="480.0" cy="1400.0" r="40" fill="white" style="stroke:black; stroke-width:1"/>
<line x1="508.2842712474619" y1="1428.284271247462" x2="508.2842712474619" y2="1568.284271247462" style="stroke:black; stroke-width:1"/>
<line x1="451.7157287525381" y1="1428.284271247462" x2="451.7157287525381" y2="1568.284271247462" style="stroke:black; stroke-width:1"/>
<line x1="508.2842712474619" y1="1568.284271247462" x2="451.7157287525381" y2="1568.284271247462" style="stroke:black; stroke-width:1"/>
<text x="440.0" y="1356.0" font-family="arial" font-size="14" fill="black" style="writing-mode: lr">ProcessCodeService</text>
<line x1="451.7157287525381" y1="1500" x2="411.7157287525381" y2="1500" style="stroke:black; stroke-width:1"/>
<text x="392" y="1490" font-family="arial" font-size="10" fill="black" style="writing-mode: lr">initialize</text>
<line x1="411.7157287525381" y1="1500" x2="404.6446609406726" y2="1492.9289321881345" style="stroke:black; stroke-width:1"/>
<line x1="411.7157287525381" y1="1500" x2="404.6446609406726" y2="1507.0710678118655" style="stroke:black; stroke-width:1"/>
<line x1="451.7157287525381" y1="1518" x2="411.7157287525381" y2="1518" style="stroke:black; stroke-width:1"/>
<text x="392" y="1508" font-family="arial" font-size="10" fill="black" style="writing-mode: lr">call</text>
<line x1="451.7157287525381" y1="1536" x2="411.7157287525381" y2="1536" style="stroke:black; stroke-width:1"/>
<text x="392" y="1526" font-family="arial" font-size="10" fill="black" style="writing-mode: lr">process_code_file</text>
<line x1="451.7157287525381" y1="1554" x2="435.7157287525381" y2="1554" style="stroke:black; stroke-width:1"/>
<ellipse cx="430.7157287525381" cy="1554" rx="5" ry="2" style="stroke:black; stroke-width:1" fill="white"/>
<line x1="425.7157287525381" y1="1554" x2="409.7157287525381" y2="1554" style="stroke:black; stroke-width:1"/>
<ellipse cx="404.7157287525381" cy="1554" rx="5" ry="2" style="stroke:black; stroke-width:1" fill="white"/>
<line x1="399.7157287525381" y1="1554" x2="383.7157287525381" y2="1554" style="stroke:black; stroke-width:1"/>
<text x="362" y="1544" font-family="arial" font-size="10" fill="black" style="writing-mode: lr">download_master_code</text>
<line x1="451.7157287525381" y1="1572" x2="435.7157287525381" y2="1572" style="stroke:black; stroke-width:1"/>
<ellipse cx="430.7157287525381" cy="1572" rx="5" ry="2" style="stroke:black; stroke-width:1" fill="white"/>
<line x1="425.7157287525381" y1="1572" x2="409.7157287525381" y2="1572" style="stroke:black; stroke-width:1"/>
<ellipse cx="404.7157287525381" cy="1572" rx="5" ry="2" style="stroke:black; stroke-width:1" fill="white"/>
<line x1="399.7157287525381" y1="1572" x2="383.7157287525381" y2="1572" style="stroke:black; stroke-width:1"/>
<text x="362" y="1562" font-family="arial" font-size="10" fill="black" style="writing-mode: lr">download_pull_request_code</text>
<line x1="451.7157287525381" y1="1590" x2="381.7157287525381" y2="1590" style="stroke:black; stroke-width:1"/>
<text x="362" y="1580" font-family="arial" font-size="10" fill="black" style="writing-mode: lr">code_master_branch_path</text>
<line x1="451.7157287525381" y1="1608" x2="381.7157287525381" y2="1608" style="stroke:black; stroke-width:1"/>
<text x="362" y="1598" font-family="arial" font-size="10" fill="black" style="writing-mode: lr">code_pull_request_branch_path</text>
<line x1="508.2842712474619" y1="1500" x2="578.2842712474619" y2="1500" style="stroke:black; stroke-width:1"/>
<text x="558" y="1490" font-family="arial" font-size="10" fill="black" style="writing-mode: lr">path_data</text>
<line x1="508.2842712474619" y1="1518" x2="524.2842712474619" y2="1518" style="stroke:black; stroke-width:1"/>
<ellipse cx="529.2842712474619" cy="1518" rx="5" ry="2" style="stroke:black; stroke-width:1" fill="white"/>
<line x1="534.2842712474619" y1="1518" x2="550.2842712474619" y2="1518" style="stroke:black; stroke-width:1"/>
<ellipse cx="555.2842712474619" cy="1518" rx="5" ry="2" style="stroke:black; stroke-width:1" fill="white"/>
<line x1="560.2842712474619" y1="1518" x2="576.2842712474619" y2="1518" style="stroke:black; stroke-width:1"/>
<text x="558" y="1508" font-family="arial" font-size="10" fill="black" style="writing-mode: lr">extract_code_path</text>
<line x1="578.2842712474619" y1="1518" x2="585.3553390593274" y2="1510.9289321881345" style="stroke:black; stroke-width:1"/>
<line x1="508.2842712474619" y1="1536" x2="548.2842712474619" y2="1536" style="stroke:black; stroke-width:1"/>
<text x="528" y="1526" font-family="arial" font-size="10" fill="black" style="writing-mode: lr">deleted?</text>
<line x1="508.2842712474619" y1="1554" x2="548.2842712474619" y2="1554" style="stroke:black; stroke-width:1"/>
<text x="528" y="1544" font-family="arial" font-size="10" fill="black" style="writing-mode: lr">new?</text>
<line x1="508.2842712474619" y1="1572" x2="548.2842712474619" y2="1572" style="stroke:black; stroke-width:1"/>
<text x="528" y="1562" font-family="arial" font-size="10" fill="black" style="writing-mode: lr">changed?</text>
<line x1="508.2842712474619" y1="1590" x2="524.2842712474619" y2="1590" style="stroke:black; stroke-width:1"/>
<ellipse cx="529.2842712474619" cy="1590" rx="5" ry="2" style="stroke:black; stroke-width:1" fill="white"/>
<line x1="534.2842712474619" y1="1590" x2="550.2842712474619" y2="1590" style="stroke:black; stroke-width:1"/>
<ellipse cx="555.2842712474619" cy="1590" rx="5" ry="2" style="stroke:black; stroke-width:1" fill="white"/>
<line x1="560.2842712474619" y1="1590" x2="576.2842712474619" y2="1590" style="stroke:black; stroke-width:1"/>
<text x="558" y="1580" font-family="arial" font-size="10" fill="black" style="writing-mode: lr">renamed?</text>
<line x1="578.2842712474619" y1="1590" x2="585.3553390593274" y2="1582.9289321881345" style="stroke:black; stroke-width:1"/>
<circle cx="760.0" cy="1400.0" r="40" fill="white" style="stroke:black; stroke-width:1"/>
<line x1="788.2842712474619" y1="1428.284271247462" x2="788.2842712474619" y2="1568.284271247462" style="stroke:black; stroke-width:1"/>
<line x1="731.7157287525381" y1="1428.284271247462" x2="731.7157287525381" y2="1568.284271247462" style="stroke:black; stroke-width:1"/>
<line x1="788.2842712474619" y1="1568.284271247462" x2="731.7157287525381" y2="1568.284271247462" style="stroke:black; stroke-width:1"/>
<text x="720.0" y="1356.0" font-family="arial" font-size="14" fill="black" style="writing-mode: lr">GitDiffService</text>
<circle cx="1040.0" cy="1400.0" r="40" fill="white" style="stroke:black; stroke-width:1"/>
<line x1="1068.284271247462" y1="1428.284271247462" x2="1068.284271247462" y2="1568.284271247462" style="stroke:black; stroke-width:1"/>
<line x1="1011.7157287525381" y1="1428.284271247462" x2="1011.7157287525381" y2="1568.284271247462" style="stroke:black; stroke-width:1"/>
<line x1="1068.284271247462" y1="1568.284271247462" x2="1011.7157287525381" y2="1568.284271247462" style="stroke:black; stroke-width:1"/>
<text x="1000.0" y="1356.0" font-family="arial" font-size="14" fill="black" style="writing-mode: lr">GithubService</text>
<line x1="1011.7157287525381" y1="1500" x2="971.7157287525381" y2="1500" style="stroke:black; stroke-width:1"/>
<text x="952" y="1490" font-family="arial" font-size="10" fill="black" style="writing-mode: lr">initialize</text>
<line x1="1011.7157287525381" y1="1525" x2="971.7157287525381" y2="1525" style="stroke:black; stroke-width:1"/>
<text x="952" y="1515" font-family="arial" font-size="10" fill="black" style="writing-mode: lr">get_user_repos</text>
<line x1="971.7157287525381" y1="1525" x2="964.6446609406727" y2="1517.9289321881345" style="stroke:black; stroke-width:1"/>
<line x1="1011.7157287525381" y1="1550" x2="941.7157287525381" y2="1550" style="stroke:black; stroke-width:1"/>
<text x="922" y="1540" font-family="arial" font-size="10" fill="black" style="writing-mode: lr">get_pull_requests</text>
<line x1="941.7157287525381" y1="1550" x2="934.6446609406727" y2="1542.9289321881345" style="stroke:black; stroke-width:1"/>
<line x1="1011.7157287525381" y1="1575" x2="971.7157287525381" y2="1575" style="stroke:black; stroke-width:1"/>
<text x="952" y="1565" font-family="arial" font-size="10" fill="black" style="writing-mode: lr">get_pull_request</text>
<line x1="971.7157287525381" y1="1575" x2="964.6446609406727" y2="1567.9289321881345" style="stroke:black; stroke-width:1"/>
<line x1="971.7157287525381" y1="1575" x2="964.6446609406726" y2="1582.0710678118655" style="stroke:black; stroke-width:1"/>
<line x1="1011.7157287525381" y1="1600" x2="971.7157287525381" y2="1600" style="stroke:black; stroke-width:1"/>
<text x="952" y="1590" font-family="arial" font-size="10" fill="black" style="writing-mode: lr">get_repo_events</text>
<line x1="971.7157287525381" y1="1600" x2="964.6446609406727" y2="1592.9289321881345" style="stroke:black; stroke-width:1"/>
<line x1="1068.284271247462" y1="1500" x2="1138.284271247462" y2="1500" style="stroke:black; stroke-width:1"/>
<text x="1118" y="1490" font-family="arial" font-size="10" fill="black" style="writing-mode: lr">create_pull_request_comment</text>
<line x1="1138.284271247462" y1="1500" x2="1145.3553390593274" y2="1492.9289321881345" style="stroke:black; stroke-width:1"/>
<line x1="1138.284271247462" y1="1500" x2="1148.284271247462" y2="1500.0" style="stroke:black; stroke-width:1"/>
<line x1="1138.284271247462" y1="1500" x2="1145.3553390593274" y2="1507.0710678118655" style="stroke:black; stroke-width:1"/>
<line x1="1068.284271247462" y1="1525" x2="1138.284271247462" y2="1525" style="stroke:black; stroke-width:1"/>
<text x="1118" y="1515" font-family="arial" font-size="10" fill="black" style="writing-mode: lr">get_diff</text>
<line x1="1138.284271247462" y1="1525" x2="1145.3553390593274" y2="1517.9289321881345" style="stroke:black; stroke-width:1"/>
<line x1="1068.284271247462" y1="1550" x2="1138.284271247462" y2="1550" style="stroke:black; stroke-width:1"/>
<text x="1118" y="1540" font-family="arial" font-size="10" fill="black" style="writing-mode: lr">octokit_client</text>
<line x1="1068.284271247462" y1="1575" x2="1138.284271247462" y2="1575" style="stroke:black; stroke-width:1"/>
<text x="1118" y="1565" font-family="arial" font-size="10" fill="black" style="writing-mode: lr">access_token</text>
</svg>