<?xml version="1.0" standalone="no"?>
<!DOCTYPE svg PUBLIC "-//W3C//DTD SVG 1.1//EN" "http://www.w3.org/Graphics/SVG/1.1/DTD/svg11.dtd">
<svg width="1240.0" height="720.0" style="background:white" xmlns="http://www.w3.org/2000/svg">
<circle cx="200.0" cy="120.0" r="40" fill="white" style="stroke:black; stroke-width:1"/>
<line x1="228.2842712474619" y1="148.2842712474619" x2="228.2842712474619" y2="288.2842712474619" style="stroke:black; stroke-width:1"/>
<line x1="171.7157287525381" y1="148.2842712474619" x2="171.7157287525381" y2="288.2842712474619" style="stroke:black; stroke-width:1"/>
<line x1="228.2842712474619" y1="288.2842712474619" x2="171.7157287525381" y2="288.2842712474619" style="stroke:black; stroke-width:1"/>
<text x="160.0" y="76.0" font-family="arial" font-size="14" fill="black" style="writing-mode: lr">Repo</text>
<circle cx="480.0" cy="120.0" r="40" fill="white" style="stroke:black; stroke-width:1"/>
<line x1="508.2842712474619" y1="148.2842712474619" x2="508.2842712474619" y2="288.2842712474619" style="stroke:black; stroke-width:1"/>
<line x1="451.7157287525381" y1="148.2842712474619" x2="451.7157287525381" y2="288.2842712474619" style="stroke:black; stroke-width:1"/>
<line x1="508.2842712474619" y1="288.2842712474619" x2="451.7157287525381" y2="288.2842712474619" style="stroke:black; stroke-width:1"/>
<text x="440.0" y="76.0" font-family="arial" font-size="14" fill="black" style="writing-mode: lr">Authorization</text>
<circle cx="760.0" cy="120.0" r="40" fill="white" style="stroke:black; stroke-width:1"/>
<line x1="788.2842712474619" y1="148.2842712474619" x2="788.2842712474619" y2="288.2842712474619" style="stroke:black; stroke-width:1"/>
<line x1="731.7157287525381" y1="148.2842712474619" x2="731.7157287525381" y2="288.2842712474619" style="stroke:black; stroke-width:1"/>
<line x1="788.2842712474619" y1="288.2842712474619" x2="731.7157287525381" y2="288.2842712474619" style="stroke:black; stroke-width:1"/>
<text x="720.0" y="76.0" font-family="arial" font-size="14" fill="black" style="writing-mode: lr">Ability</text>
<line x1="731.7157287525381" y1="156" x2="701.7157287525381" y2="156" style="stroke:black; stroke-width:1"/>
<ellipse cx="696.7157287525381" cy="156" rx="5" ry="2" style="stroke:black; stroke-width:1" fill="white"/>
<line x1="691.7157287525381" y1="156" x2="661.7157287525381" y2="156" style="stroke:black; stroke-width:1"/>
<text x="642" y="146" font-family="arial" font-size="10" fill="black" style="writing-mode: lr">initialize</text>
<line x1="661.7157287525381" y1="156" x2="654.6446609406727" y2="148.92893218813452" style="stroke:black; stroke-width:1"/>
<line x1="788.2842712474619" y1="156" x2="858.2842712474619" y2="156" style="stroke:black; stroke-width:1"/>
<text x="838" y="146" font-family="arial" font-size="10" fill="black" style="writing-mode: lr">user_abilities</text>
<circle cx="1040.0" cy="120.0" r="40" fill="white" style="stroke:black; stroke-width:1"/>
<line x1="1068.284271247462" y1="148.2842712474619" x2="1068.284271247462" y2="288.2842712474619" style="stroke:black; stroke-width:1"/>
<line x1="1011.7157287525381" y1="148.2842712474619" x2="1011.7157287525381" y2="288.2842712474619" style="stroke:black; stroke-width:1"/>
<line x1="1068.284271247462" y1="288.2842712474619" x2="1011.7157287525381" y2="288.2842712474619" style="stroke:black; stroke-width:1"/>
<text x="1000.0" y="76.0" font-family="arial" font-size="14" fill="black" style="writing-mode: lr">ApplicationRecord</text>
<circle cx="200.0" cy="440.0" r="40" fill="white" style="stroke:black; stroke-width:1"/>
<line x1="228.2842712474619" y1="468.2842712474619" x2="228.2842712474619" y2="608.2842712474619" style="stroke:black; stroke-width:1"/>
<line x1="171.7157287525381" y1="468.2842712474619" x2="171.7157287525381" y2="608.2842712474619" style="stroke:black; stroke-width:1"/>
<line x1="228.2842712474619" y1="608.2842712474619" x2="171.7157287525381" y2="608.2842712474619" style="stroke:black; stroke-width:1"/>
<text x="160.0" y="396.0" font-family="arial" font-size="14" fill="black" style="writing-mode: lr">User</text>
<line x1="171.7157287525381" y1="492" x2="101.7157287525381" y2="492" style="stroke:black; stroke-width:1"/>
<text x="82" y="482" font-family="arial" font-size="10" fill="black" style="writing-mode: lr">create_authorization!</text>
<line x1="101.7157287525381" y1="492" x2="94.64466094067262" y2="484.9289321881345" style="stroke:black; stroke-width:1"/>
</svg>