<?xml version="1.0" standalone="no"?>
<!DOCTYPE svg PUBLIC "-//W3C//DTD SVG 1.1//EN" "http://www.w3.org/Graphics/SVG/1.1/DTD/svg11.dtd">
<svg width="960.0" height="400.0" style="background:white" xmlns="http://www.w3.org/2000/svg">
<circle cx="200.0" cy="120.0" r="40" fill="white" style="stroke:black; stroke-width:1"/>
<line x1="228.2842712474619" y1="148.2842712474619" x2="228.2842712474619" y2="288.2842712474619" style="stroke:black; stroke-width:1"/>
<line x1="171.7157287525381" y1="148.2842712474619" x2="171.7157287525381" y2="288.2842712474619" style="stroke:black; stroke-width:1"/>
<line x1="228.2842712474619" y1="288.2842712474619" x2="171.7157287525381" y2="288.2842712474619" style="stroke:black; stroke-width:1"/>
<text x="160.0" y="76.0" font-family="arial" font-size="14" fill="black" style="writing-mode: lr">ApplicationController</text>
<circle cx="480.0" cy="120.0" r="40" fill="white" style="stroke:black; stroke-width:1"/>
<line x1="508.2842712474619" y1="148.2842712474619" x2="508.2842712474619" y2="288.2842712474619" style="stroke:black; stroke-width:1"/>
<line x1="451.7157287525381" y1="148.2842712474619" x2="451.7157287525381" y2="288.2842712474619" style="stroke:black; stroke-width:1"/>
<line x1="508.2842712474619" y1="288.2842712474619" x2="451.7157287525381" y2="288.2842712474619" style="stroke:black; stroke-width:1"/>
<text x="440.0" y="76.0" font-family="arial" font-size="14" fill="black" style="writing-mode: lr">OauthCallbacksController</text>
<line x1="451.7157287525381" y1="156" x2="411.7157287525381" y2="156" style="stroke:black; stroke-width:1"/>
<text x="392" y="146" font-family="arial" font-size="10" fill="black" style="writing-mode: lr">github</text>
<line x1="508.2842712474619" y1="156" x2="524.2842712474619" y2="156" style="stroke:black; stroke-width:1"/>
<ellipse cx="529.2842712474619" cy="156" rx="5" ry="2" style="stroke:black; stroke-width:1" fill="white"/>
<line x1="534.2842712474619" y1="156" x2="550.2842712474619" y2="156" style="stroke:black; stroke-width:1"/>
<ellipse cx="555.2842712474619" cy="156" rx="5" ry="2" style="stroke:black; stroke-width:1" fill="white"/>
<line x1="560.2842712474619" y1="156" x2="576.2842712474619" y2="156" style="stroke:black; stroke-width:1"/>
<text x="558" y="146" font-family="arial" font-size="10" fill="black" style="writing-mode: lr">oauth_provider</text>
<line x1="578.2842712474619" y1="156" x2="585.3553390593274" y2="148.92893218813452" style="stroke:black; stroke-width:1"/>
<circle cx="760.0" cy="120.0" r="40" fill="white" style="stroke:black; stroke-width:1"/>
<line x1="788.2842712474619" y1="148.2842712474619" x2="788.2842712474619" y2="288.2842712474619" style="stroke:black; stroke-width:1"/>
<line x1="731.7157287525381" y1="148.2842712474619" x2="731.7157287525381" y2="288.2842712474619" style="stroke:black; stroke-width:1"/>
<line x1="788.2842712474619" y1="288.2842712474619" x2="731.7157287525381" y2="288.2842712474619" style="stroke:black; stroke-width:1"/>
<text x="720.0" y="76.0" font-family="arial" font-size="14" fill="black" style="writing-mode: lr">ReposController</text>
<line x1="731.7157287525381" y1="156" x2="661.7157287525381" y2="156" style="stroke:black; stroke-width:1"/>
<text x="642" y="146" font-family="arial" font-size="10" fill="black" style="writing-mode: lr">index</text>
<line x1="731.7157287525381" y1="177" x2="661.7157287525381" y2="177" style="stroke:black; stroke-width:1"/>
<text x="642" y="167" font-family="arial" font-size="10" fill="black" style="writing-mode: lr">refresh</text>
<line x1="731.7157287525381" y1="198" x2="661.7157287525381" y2="198" style="stroke:black; stroke-width:1"/>
<text x="642" y="188" font-family="arial" font-size="10" fill="black" style="writing-mode: lr">monitor</text>
<line x1="731.7157287525381" y1="219" x2="661.7157287525381" y2="219" style="stroke:black; stroke-width:1"/>
<text x="642" y="209" font-family="arial" font-size="10" fill="black" style="writing-mode: lr">not_monitor</text>
<line x1="731.7157287525381" y1="240" x2="701.7157287525381" y2="240" style="stroke:black; stroke-width:1"/>
<ellipse cx="696.7157287525381" cy="240" rx="5" ry="2" style="stroke:black; stroke-width:1" fill="white"/>
<line x1="691.7157287525381" y1="240" x2="661.7157287525381" y2="240" style="stroke:black; stroke-width:1"/>
<text x="642" y="230" font-family="arial" font-size="10" fill="black" style="writing-mode: lr">add_to_monitored</text>
<line x1="731.7157287525381" y1="261" x2="701.7157287525381" y2="261" style="stroke:black; stroke-width:1"/>
<ellipse cx="696.7157287525381" cy="261" rx="5" ry="2" style="stroke:black; stroke-width:1" fill="white"/>
<line x1="691.7157287525381" y1="261" x2="661.7157287525381" y2="261" style="stroke:black; stroke-width:1"/>
<text x="642" y="251" font-family="arial" font-size="10" fill="black" style="writing-mode: lr">remove_from_monitored</text>
<line x1="788.2842712474619" y1="156" x2="828.2842712474619" y2="156" style="stroke:black; stroke-width:1"/>
<text x="808" y="146" font-family="arial" font-size="10" fill="black" style="writing-mode: lr">id</text>
<line x1="788.2842712474619" y1="177" x2="828.2842712474619" y2="177" style="stroke:black; stroke-width:1"/>
<text x="808" y="167" font-family="arial" font-size="10" fill="black" style="writing-mode: lr">repo_id</text>
<line x1="788.2842712474619" y1="198" x2="858.2842712474619" y2="198" style="stroke:black; stroke-width:1"/>
<text x="838" y="188" font-family="arial" font-size="10" fill="black" style="writing-mode: lr">get_current_user_repos</text>
<line x1="788.2842712474619" y1="219" x2="858.2842712474619" y2="219" style="stroke:black; stroke-width:1"/>
<text x="838" y="209" font-family="arial" font-size="10" fill="black" style="writing-mode: lr">update_user_repos</text>
<line x1="788.2842712474619" y1="240" x2="818.2842712474619" y2="240" style="stroke:black; stroke-width:1"/>
<ellipse cx="823.2842712474619" cy="240" rx="5" ry="2" style="stroke:black; stroke-width:1" fill="white"/>
<line x1="828.2842712474619" y1="240" x2="858.2842712474619" y2="240" style="stroke:black; stroke-width:1"/>
<text x="838" y="230" font-family="arial" font-size="10" fill="black" style="writing-mode: lr">update_repository</text>
<line x1="858.2842712474619" y1="240" x2="865.3553390593274" y2="232.92893218813452" style="stroke:black; stroke-width:1"/>
<line x1="788.2842712474619" y1="261" x2="804.2842712474619" y2="261" style="stroke:black; stroke-width:1"/>
<ellipse cx="809.2842712474619" cy="261" rx="5" ry="2" style="stroke:black; stroke-width:1" fill="white"/>
<line x1="814.2842712474619" y1="261" x2="830.2842712474619" y2="261" style="stroke:black; stroke-width:1"/>
<ellipse cx="835.2842712474619" cy="261" rx="5" ry="2" style="stroke:black; stroke-width:1" fill="white"/>
<line x1="840.2842712474619" y1="261" x2="856.2842712474619" y2="261" style="stroke:black; stroke-width:1"/>
<text x="838" y="251" font-family="arial" font-size="10" fill="black" style="writing-mode: lr">load_repos</text>
</svg>