<?xml version="1.0" standalone="no"?>
<!DOCTYPE svg PUBLIC "-//W3C//DTD SVG 1.1//EN" "http://www.w3.org/Graphics/SVG/1.1/DTD/svg11.dtd">
<svg width="680.0" height="400.0" style="background:white" xmlns="http://www.w3.org/2000/svg">
<circle cx="200.0" cy="120.0" r="40" fill="white" style="stroke:green; stroke-width:1"/>
<line x1="228.2842712474619" y1="148.2842712474619" x2="228.2842712474619" y2="288.2842712474619" style="stroke:green; stroke-width:1"/>
<line x1="171.7157287525381" y1="148.2842712474619" x2="171.7157287525381" y2="288.2842712474619" style="stroke:green; stroke-width:1"/>
<line x1="228.2842712474619" y1="288.2842712474619" x2="171.7157287525381" y2="288.2842712474619" style="stroke:green; stroke-width:1"/>
<text x="160.0" y="76.0" font-family="arial" font-size="14" fill="green" style="writing-mode: lr">GitDiffService</text>
<circle cx="480.0" cy="120.0" r="40" fill="white" style="stroke:green; stroke-width:1"/>
<line x1="508.2842712474619" y1="148.2842712474619" x2="508.2842712474619" y2="288.2842712474619" style="stroke:green; stroke-width:1"/>
<line x1="451.7157287525381" y1="148.2842712474619" x2="451.7157287525381" y2="288.2842712474619" style="stroke:green; stroke-width:1"/>
<line x1="508.2842712474619" y1="288.2842712474619" x2="451.7157287525381" y2="288.2842712474619" style="stroke:green; stroke-width:1"/>
<text x="440.0" y="76.0" font-family="arial" font-size="14" fill="green" style="writing-mode: lr">Task3</text>
<line x1="451.7157287525381" y1="156" x2="411.7157287525381" y2="156" style="stroke:green; stroke-width:1"/>
<text x="392" y="146" font-family="arial" font-size="10" fill="green" style="writing-mode: lr">init</text>
<line x1="411.7157287525381" y1="156" x2="404.6446609406726" y2="148.92893218813452" style="stroke:green; stroke-width:1"/>
<line x1="508.2842712474619" y1="156" x2="548.2842712474619" y2="156" style="stroke:green; stroke-width:1"/>
<text x="528" y="146" font-family="arial" font-size="10" fill="green" style="writing-mode: lr">checked?</text>
<line x1="548.2842712474619" y1="156" x2="555.3553390593274" y2="148.92893218813452" style="stroke:green; stroke-width:1"/>
<line x1="548.2842712474619" y1="156" x2="555.3553390593274" y2="163.07106781186548" style="stroke:green; stroke-width:1"/>
</svg>